<?xml version="1.0" encoding="utf-8"?>
<!-- Generator: Adobe Illustrator 24.0.1, SVG Export Plug-In . SVG Version: 6.00 Build 0)  -->
<svg version="1.1" id="Layer_1" xmlns="http://www.w3.org/2000/svg" xmlns:xlink="http://www.w3.org/1999/xlink" x="0px" y="0px"
	 viewBox="0 0 113.39 113.39" style="enable-background:new 0 0 113.39 113.39;" xml:space="preserve">
<style type="text/css">
	.st0{fill:#EDEDED;}
	.st1{fill:#615D9A;}
	.st2{fill:#ECEDED;}
</style>
<g>
	<path class="st0" d="M104.21,56.63c0.03,26.13-21.17,47.39-47.32,47.45C30.54,104.14,9.21,83.02,9.18,56.85
		C9.15,30.49,30.34,9.31,56.76,9.31C82.91,9.31,104.18,30.52,104.21,56.63z"/>
	<path class="st1" d="M47.76,58.47c0-4.12-0.02-8.23,0.01-12.35c0.02-2.83,1.55-4.4,4.35-4.45c1.94-0.04,3.88-0.04,5.81,0.03
		c6.45,0.25,11.51,5.32,11.65,11.62c0.14,6.47-4.63,11.67-11.2,12.22c-2.44,0.2-2.44,0.2-2.44,2.66c0,1.15,0.05,2.3-0.02,3.45
		c-0.15,2.36-1.87,3.98-4.13,3.94c-2.27-0.03-3.98-1.68-4.01-4.04C47.73,67.19,47.76,62.83,47.76,58.47z"/>
	<path class="st1" d="M55.27,93.09c-17.45-0.39-32.7-14.27-34.82-31.66c-0.18-1.51-0.33-3-0.31-4.52c0.04-2.51,1.62-4.22,3.96-4.3
		c2.43-0.08,4.24,1.57,4.3,4.15c0.11,4.49,1,8.79,3.14,12.74c5.15,9.46,13.14,14.57,23.9,15.33c0.78,0.06,1.59,0.04,2.34,0.22
		c1.94,0.48,3.24,2.43,3.02,4.4c-0.22,1.99-1.85,3.52-3.9,3.63C56.36,93.12,55.82,93.09,55.27,93.09z"/>
	<path class="st1" d="M93.19,55.21c0.08,3.31-0.93,5.04-3.22,5.5c-2.73,0.54-4.95-1.26-5.02-4.28c-0.12-5.14-1.37-9.94-4.11-14.29
		c-5.19-8.22-12.65-12.78-22.38-13.54c-0.54-0.04-1.09-0.04-1.63-0.08c-2.61-0.19-4.32-1.88-4.28-4.23c0.04-2.34,1.83-3.99,4.47-4
		c7.29-0.01,13.92,2.14,19.99,6.13C86.6,32.72,92.91,43.93,93.19,55.21z"/>
	<path class="st2" d="M55.95,53.59c0-0.54,0-1.08,0-1.63c0.01-2.2,0.61-2.64,2.71-1.98c1.89,0.59,3.05,2.51,2.66,4.37
		c-0.41,1.93-2.32,3.25-4.31,3.08c-0.79-0.07-1.05-0.42-1.05-1.13c0.01-0.9,0-1.81,0-2.71C55.96,53.59,55.95,53.59,55.95,53.59z"/>
</g>
</svg>
